<?xml version="1.0" standalone="no"?>
<!DOCTYPE svg PUBLIC "-//W3C//DTD SVG 20010904//EN"
 "http://www.w3.org/TR/2001/REC-SVG-20010904/DTD/svg10.dtd">
<svg version="1.0" xmlns="http://www.w3.org/2000/svg"
 width="686.000000pt" height="1280.000000pt" viewBox="0 0 686.000000 1280.000000"
 preserveAspectRatio="xMidYMid meet">
<metadata>
Created by potrace 1.15, written by Peter Selinger 2001-2017
</metadata>
<g transform="translate(0.000000,1280.000000) scale(0.100000,-0.100000)"
fill="#000000" stroke="none">
<path d="M2995 12794 c-625 -13 -2065 -82 -2118 -102 -15 -6 -3 -24 72 -114
483 -577 768 -1158 906 -1843 79 -390 106 -735 106 -1350 0 -384 -8 -725 -17
-725 -1 0 -48 -9 -103 -20 -354 -70 -699 -190 -971 -338 -311 -169 -530 -387
-633 -628 -211 -491 -279 -1168 -201 -1989 115 -1221 539 -2764 1234 -4495
118 -295 318 -764 395 -926 52 -110 53 -111 91 -117 21 -3 149 -21 284 -41
529 -76 873 -100 1425 -101 445 0 574 7 955 46 320 33 705 93 727 113 39 36
433 973 643 1531 839 2223 1195 4039 1029 5245 -56 406 -173 755 -318 947
-249 331 -768 601 -1417 740 l-172 37 -7 315 c-13 553 1 1028 40 1366 102 867
412 1577 983 2248 59 69 72 91 61 98 -8 5 -21 9 -29 9 -8 0 -62 4 -120 10
-237 22 -735 52 -1160 71 -232 10 -1394 19 -1685 13z m1515 -34 c485 -17 1039
-49 1325 -77 l70 -7 -50 -8 c-551 -85 -1622 -162 -2180 -156 l-160 1 215 8
c817 29 1045 42 1493 85 264 25 572 63 565 69 -2 2 -102 10 -223 19 -121 9
-251 18 -290 21 -294 22 -883 38 -1580 44 l-810 7 670 2 c369 1 798 -3 955 -8z
m-1690 -7 c-36 -1 -204 -7 -375 -13 -546 -19 -1130 -51 -1213 -66 -50 -10 -22
-21 72 -30 45 -4 71 -10 60 -12 -20 -3 -355 35 -361 41 -4 4 472 35 817 53
433 22 693 31 890 31 96 -1 146 -2 110 -4z m-1095 -148 c444 -37 891 -64 1343
-81 95 -3 171 -8 168 -11 -11 -11 -860 28 -1241 57 -198 15 -579 51 -590 55
-22 8 41 4 320 -20z"/>
</g>
</svg>
